<svg width="46" height="46" viewBox="0 0 46 46" fill="none" xmlns="http://www.w3.org/2000/svg">
<path d="M23 1C35.1503 1 45 10.8497 45 23C45 35.1503 35.1503 45 23 45C10.8497 45 1 35.1503 1 23C1 10.8497 10.8497 1 23 1ZM23 3.75C12.3685 3.75 3.75 12.3685 3.75 23C3.75 33.6315 12.3685 42.25 23 42.25C33.6315 42.25 42.25 33.6315 42.25 23C42.25 12.3685 33.6315 3.75 23 3.75ZM17.6973 15.7599L17.7848 15.8402L23 21.0551L28.2152 15.8402C28.7522 15.3033 29.6228 15.3033 30.1598 15.8402C30.6685 16.3489 30.6953 17.1571 30.2401 17.6973L30.1598 17.7848L24.9449 23L30.1598 28.2152C30.6967 28.7522 30.6967 29.6228 30.1598 30.1598C29.6511 30.6685 28.8429 30.6953 28.3027 30.2401L28.2152 30.1598L23 24.9449L17.7848 30.1598C17.2478 30.6967 16.3772 30.6967 15.8402 30.1598C15.3315 29.6511 15.3047 28.8429 15.7599 28.3027L15.8402 28.2152L21.0551 23L15.8402 17.7848C15.3033 17.2478 15.3033 16.3772 15.8402 15.8402C16.3489 15.3315 17.1571 15.3047 17.6973 15.7599Z" fill="#E64646"/>
<path d="M23 0C35.7025 0 46 10.2975 46 23C46 35.7025 35.7025 46 23 46C10.2975 46 0 35.7025 0 23C0 10.2975 10.2975 0 23 0ZM23 2.875C11.8853 2.875 2.875 11.8853 2.875 23C2.875 34.1147 11.8853 43.125 23 43.125C34.1147 43.125 43.125 34.1147 43.125 23C43.125 11.8853 34.1147 2.875 23 2.875ZM17.4563 15.4308L17.5477 15.5148L23 20.9667L28.4523 15.5148C29.0137 14.9534 29.9238 14.9534 30.4852 15.5148C31.017 16.0466 31.045 16.8915 30.5692 17.4563L30.4852 17.5477L25.0333 23L30.4852 28.4523C31.0466 29.0137 31.0466 29.9238 30.4852 30.4852C29.9534 31.017 29.1085 31.045 28.5437 30.5692L28.4523 30.4852L23 25.0333L17.5477 30.4852C16.9863 31.0466 16.0762 31.0466 15.5148 30.4852C14.983 29.9534 14.955 29.1085 15.4308 28.5437L15.5148 28.4523L20.9667 23L15.5148 17.5477C14.9534 16.9863 14.9534 16.0762 15.5148 15.5148C16.0466 14.983 16.8915 14.955 17.4563 15.4308Z" fill="#E64646"/>
</svg>
